<svg width="98" height="83" viewBox="0 0 98 83" fill="none" xmlns="http://www.w3.org/2000/svg">
<path d="M0.799387 79.977C0.00584184 81.3102 0.966515 83 2.51797 83H95.482C97.0335 83 97.9942 81.3102 97.2006 79.977L50.7186 1.88722C49.9432 0.584511 48.0568 0.584514 47.2814 1.88722L0.799387 79.977ZM53.5455 71C53.5455 72.1046 52.65 73 51.5455 73H46.4545C45.35 73 44.4545 72.1046 44.4545 71V65C44.4545 63.8954 45.35 63 46.4545 63H51.5455C52.65 63 53.5455 63.8954 53.5455 65V71ZM53.5455 55C53.5455 56.1046 52.65 57 51.5455 57H46.4545C45.35 57 44.4545 56.1046 44.4545 55V31C44.4545 29.8954 45.35 29 46.4545 29H51.5455C52.65 29 53.5455 29.8954 53.5455 31V55Z" fill="#8A8A8A"/>
</svg>
