<svg width="100" height="100" viewBox="0 0 100 100" fill="none" xmlns="http://www.w3.org/2000/svg">
<path d="M49.95 0C22.35 0 0 22.4 0 50C0 77.6 22.35 100 49.95 100C77.6 100 100 77.6 100 50C100 22.4 77.6 0 49.95 0ZM84.6 30H69.85C68.25 23.75 65.95 17.75 62.95 12.2C72.15 15.35 79.8 21.75 84.6 30ZM50 10.2C54.15 16.2 57.4 22.85 59.55 30H40.45C42.6 22.85 45.85 16.2 50 10.2ZM11.3 60C10.5 56.8 10 53.45 10 50C10 46.55 10.5 43.2 11.3 40H28.2C27.8 43.3 27.5 46.6 27.5 50C27.5 53.4 27.8 56.7 28.2 60H11.3ZM15.4 70H30.15C31.75 76.25 34.05 82.25 37.05 87.8C27.85 84.65 20.2 78.3 15.4 70ZM30.15 30H15.4C20.2 21.7 27.85 15.35 37.05 12.2C34.05 17.75 31.75 23.75 30.15 30ZM50 89.8C45.85 83.8 42.6 77.15 40.45 70H59.55C57.4 77.15 54.15 83.8 50 89.8ZM61.7 60H38.3C37.85 56.7 37.5 53.4 37.5 50C37.5 46.6 37.85 43.25 38.3 40H61.7C62.15 43.25 62.5 46.6 62.5 50C62.5 53.4 62.15 56.7 61.7 60ZM62.95 87.8C65.95 82.25 68.25 76.25 69.85 70H84.6C79.8 78.25 72.15 84.65 62.95 87.8ZM71.8 60C72.2 56.7 72.5 53.4 72.5 50C72.5 46.6 72.2 43.3 71.8 40H88.7C89.5 43.2 90 46.55 90 50C90 53.45 89.5 56.8 88.7 60H71.8Z" fill="#8A8A8A"/>
</svg>
