<svg width="100" height="58" viewBox="0 0 100 58" fill="none" xmlns="http://www.w3.org/2000/svg">
<path d="M52.9545 19.3333C49.2273 8.07167 39.1364 0 27.2727 0C12.2273 0 0 13.0017 0 29C0 44.9983 12.2273 58 27.2727 58C39.1364 58 49.2273 49.9283 52.9545 38.6667H72.7273V58H90.9091V38.6667H100V19.3333H52.9545ZM27.2727 38.6667C22.2727 38.6667 18.1818 34.3167 18.1818 29C18.1818 23.6833 22.2727 19.3333 27.2727 19.3333C32.2727 19.3333 36.3636 23.6833 36.3636 29C36.3636 34.3167 32.2727 38.6667 27.2727 38.6667Z" fill="#8A8A8A"/>
</svg>
