<svg width="100" height="100" viewBox="0 0 100 100" fill="none" xmlns="http://www.w3.org/2000/svg">
<circle cx="50" cy="50" r="46.5" stroke="#8A8A8A" stroke-width="7"/>
<path fill-rule="evenodd" clip-rule="evenodd" d="M86.2354 84.453C94.765 75.4849 100 63.3538 100 50C100 22.3858 77.6142 0 50 0C22.3858 0 0 22.3858 0 50C0 63.3532 5.23455 75.4839 13.7636 84.4519C23.2564 77.6069 40.0421 74.1668 49.9987 74.1668C59.9559 74.1668 76.7429 77.6073 86.2354 84.453ZM71.6654 41.6668C71.6654 53.6376 61.9696 63.3334 49.9987 63.3334C38.0279 63.3334 28.3321 53.6376 28.3321 41.6668C28.3321 29.6959 38.0279 20.0001 49.9987 20.0001C61.9696 20.0001 71.6654 29.6959 71.6654 41.6668Z" fill="#8A8A8A"/>
</svg>
