<svg width="98" height="89" viewBox="0 0 98 89" fill="none" xmlns="http://www.w3.org/2000/svg">
<path d="M32.5276 34.6421C32.4647 34.8544 32.2696 35 32.0482 35H0.533842C0.0499678 35 -0.151741 35.6188 0.239176 35.9039L25.9181 54.636C26.0897 54.7612 26.1635 54.9812 26.102 55.1845L16.3403 87.4997C16.1995 87.9659 16.7406 88.3379 17.1255 88.0393L42.7855 68.1326C42.9657 67.9927 43.2178 67.9926 43.3981 68.1323L69.1004 88.0396C69.4856 88.3379 70.0265 87.9654 69.8851 87.4992L60.0819 55.1848C60.0202 54.9813 60.0939 54.761 60.2657 54.6357L85.9442 35.9039C86.3352 35.6188 86.1335 35 85.6496 35H54.1352C53.9138 35 53.7187 34.8544 53.6558 34.6421L43.5711 0.617396C43.4297 0.140179 42.7538 0.140177 42.6123 0.617394L32.5276 34.6421ZM87.5309 88.0394C87.916 88.3378 88.457 87.9653 88.3156 87.4991L80.6727 62.2947C80.611 62.0912 80.6846 61.8711 80.8563 61.7457L97.762 49.4038C98.1527 49.1186 97.9509 48.5 97.4671 48.5H83.9954C83.8895 48.5 83.7864 48.5336 83.7008 48.596L70.5392 58.1908C70.3673 58.3161 70.2935 58.5363 70.3552 58.7399L76.6434 79.4874C76.6734 79.5867 76.7336 79.6741 76.8156 79.7376L87.5309 88.0394ZM68.8765 26C69.2109 26 69.4511 25.6781 69.3558 25.3576L62.0028 0.617615C61.861 0.140456 61.185 0.14103 61.044 0.61843L56.9784 14.3832C56.9511 14.4758 56.9511 14.5742 56.9784 14.6667L60.2256 25.6419C60.2884 25.8543 60.4836 26 60.7051 26H68.8765Z" fill="#8A8A8A"/>
</svg>
